# xmcd
#
# Track frame offsets:
#	122780
#	137210
#	153069
#	168681
#	186309
#	203749
#	224924
#	238894
#	255224
#	266849
#	280019
#	296135
#
# Disc length: 4292 seconds
#
# Revision: 4
# Processed by: cddbd v1.5.2PL0 Copyright (c) Steve Scherf et al.
# Submitted via: EZCDAudioConverter 6.0.7.1
#
DISCID=d00a5f0c
DTITLE=Highway 101 - Highway 101 and Paulette Carlson Reunited
DYEAR=1996
DGENRE=Country
TTITLE0=Where'd You Get Your Cheatin' From
TTITLE1=The Bed You Made For Me
TTITLE2=Holdin' On
TTITLE3=Hearts On The Run
TTITLE4=Setting Me Up
TTITLE5=She Don't Have The Heart To Love You
TTITLE6=Texas Girl
TTITLE7=All The Reasons Why
TTITLE8=Walkin', Talkin', Cryin', Barely Beatin' Broken Heart
TTITLE9=I've Got Your Number
TTITLE10=It Must Be Love
TTITLE11=Have You Ever Really Loved A Woman
EXTD=
EXTT0=
EXTT1=
EXTT2=
EXTT3=
EXTT4=
EXTT5=
EXTT6=
EXTT7=
EXTT8=
EXTT9=
EXTT10=
EXTT11=
PLAYORDER=
